<?xml version="1.0" encoding="UTF-8"?>
<svg id="Layer_2" data-name="Layer 2" xmlns="http://www.w3.org/2000/svg" viewBox="0 0 2148.57 334.55">
  <defs>
    <style>
      .cls-1 {
        fill: #000767;
      }
    </style>
  </defs>
  <g id="Layer_1-2" data-name="Layer 1">
    <g>
      <path class="cls-1" d="M165.31,329.84h-58.9V63.61H0V11.78h271.73v51.83h-106.41v266.23Z"/>
      <path class="cls-1" d="M281.3,329.84v-177.09h-29.06v-58.51h59.69v45.55h16.49c6.54-15.71,16.62-27.61,30.23-35.73,13.61-8.11,29.19-12.17,46.73-12.17h19.63v50.26h-22.38c-21.2,0-37.11,6.15-47.71,18.46-10.6,12.31-15.9,28.67-15.9,49.08v120.16h-57.72Z"/>
      <path class="cls-1" d="M517.84,334.16c-27.49,0-49.02-6.67-64.6-20.02-15.58-13.35-23.36-31.02-23.36-53.01s7.91-40.84,23.76-53.4c15.83-12.57,38.68-18.85,68.52-18.85h71.86v-9.42c0-28.79-16.76-43.19-50.26-43.19-28.27,0-45.42,10.21-51.44,30.63h-58.51c4.71-25.13,16.55-44.3,35.54-57.53,18.98-13.21,43.78-19.83,74.41-19.83,34.56,0,60.86,7.79,78.93,23.36,18.06,15.58,27.09,38.28,27.09,68.13v90.31h27.88v58.51h-60.08v-37.7h-16.49c-8.12,13.35-19.05,23.7-32.79,31.02-13.74,7.33-30.57,10.99-50.46,10.99ZM526.48,289c12.82,0,24.35-2.42,34.55-7.26,10.21-4.84,18.26-11.39,24.15-19.63,5.89-8.24,8.83-17.47,8.83-27.68v-5.5h-68.72c-26.44,0-39.66,9.82-39.66,29.45,0,9.69,3.6,17.22,10.8,22.58,7.2,5.37,17.21,8.05,30.04,8.05Z"/>
      <path class="cls-1" d="M807.39,334.55c-24.09,0-44.51-5.04-61.26-15.12-16.76-10.07-29.52-24.35-38.28-42.8-8.77-18.46-13.15-39.98-13.15-64.59s4.25-46.46,12.76-64.79c8.5-18.32,20.81-32.52,36.91-42.6,16.1-10.08,35.4-15.12,57.92-15.12,17.8,0,33.11,3.34,45.94,10.01,12.82,6.68,22.64,16.3,29.45,28.86h1.57V0h58.51v271.33h29.06v58.51h-59.68v-37.7h-16.49c-8.38,13.62-19.5,24.09-33.38,31.41-13.88,7.33-30.5,10.99-49.87,10.99ZM817.6,283.9c18.85,0,33.83-5.3,44.96-15.9,11.12-10.6,16.69-25.06,16.69-43.39v-25.13c0-18.32-5.57-32.79-16.69-43.39-11.13-10.6-26.11-15.9-44.96-15.9-20.95,0-36.91,6.35-47.9,19.04-11,12.7-16.49,30.3-16.49,52.81s5.5,40.12,16.49,52.81c10.99,12.7,26.96,19.04,47.9,19.04Z"/>
      <path class="cls-1" d="M1107.93,334.55c-25.39,0-47.38-5.04-65.97-15.12-18.59-10.07-32.92-24.35-43-42.8-10.08-18.46-15.12-40.25-15.12-65.38s4.97-46.79,14.92-64.99c9.95-18.19,24.08-32.2,42.41-42.02,18.32-9.82,39.79-14.73,64.4-14.73s44.76,4.65,62.04,13.94c17.28,9.3,30.63,22.65,40.05,40.05,9.42,17.41,14.13,38.03,14.13,61.84v20.42h-181.41c2.09,19.9,8.96,35.14,20.61,45.75,11.65,10.6,27.16,15.9,46.53,15.9,14.39,0,26.11-2.68,35.14-8.05,9.03-5.36,15.38-13.41,19.04-24.15h58.9c-5.5,24.87-18.13,44.31-37.89,58.31-19.77,14.01-44.7,21.01-74.8,21.01ZM1041.57,186.12h124.08c-2.36-16.23-8.64-28.6-18.85-37.11-10.21-8.5-23.95-12.76-41.23-12.76s-31.02,4.32-42.02,12.96c-10.99,8.64-18.33,20.95-21.99,36.91Z"/>
      <path class="cls-1" d="M1260.45,329.84V11.78h60.08v127.23h164.53V11.78h59.69v318.06h-59.69v-139.01h-164.53v139.01h-60.08Z"/>
      <path class="cls-1" d="M1695.29,334.16c-32.2,0-57-8.57-74.41-25.72-17.41-17.14-26.11-40.38-26.11-69.7V94.24h58.51v132.72c0,18.33,4.71,32.14,14.14,41.43,9.42,9.29,23.43,13.94,42.01,13.94,19.63,0,34.69-4.97,45.16-14.92,10.47-9.94,15.71-23.95,15.71-42.01V94.24h58.51v177.09h29.45v58.51h-60.08v-37.7h-16.49c-9.17,13.62-20.62,24.02-34.36,31.22-13.74,7.2-31.09,10.8-52.03,10.8Z"/>
      <path class="cls-1" d="M2036.27,334.55c-19.63,0-36.39-3.67-50.26-10.99-13.88-7.33-24.87-17.8-32.98-31.41h-16.49v37.7h-60.08v-58.51h29.06V0h58.51v128.4h1.57c7.07-12.57,17.01-22.19,29.84-28.86,12.82-6.68,28.14-10.01,45.94-10.01,22.51,0,41.75,5.04,57.72,15.12,15.96,10.08,28.2,24.28,36.72,42.6,8.5,18.33,12.76,39.92,12.76,64.79s-4.32,46.14-12.96,64.59c-8.64,18.46-21.27,32.73-37.89,42.8-16.63,10.08-37.11,15.12-61.45,15.12ZM2025.67,283.9c21.2,0,37.24-6.34,48.1-19.04,10.86-12.69,16.3-30.3,16.3-52.81s-5.44-40.11-16.3-52.81c-10.86-12.69-26.9-19.04-48.1-19.04-18.59,0-33.51,5.3-44.76,15.9-11.26,10.6-16.89,25.07-16.89,43.39v25.13c0,18.33,5.63,32.79,16.89,43.39,11.25,10.6,26.17,15.9,44.76,15.9Z"/>
    </g>
  </g>
</svg>