<?xml version="1.0" encoding="UTF-8"?>
<svg id="Layer_2" data-name="Layer 2" xmlns="http://www.w3.org/2000/svg" viewBox="0 0 1986.71 523.43">
  <defs>
    <style>
      .cls-1 {
        fill: #0087f3;
      }

      .cls-2 {
        fill: #000767;
      }
    </style>
  </defs>
  <g id="Layer_1-2" data-name="Layer 1">
    <g>
      <g>
        <path class="cls-1" d="M112.7,490.47c-10.12,0-19.01-2.41-26.69-7.24-7.68-4.83-13.66-11.56-17.93-20.21-4.28-8.64-6.41-18.71-6.41-30.21s2.14-21.42,6.41-30.07c4.28-8.64,10.25-15.38,17.93-20.21,7.68-4.83,16.57-7.24,26.69-7.24,7.91,0,14.99,1.45,21.24,4.35,6.25,2.9,11.38,7.03,15.38,12.41,4,5.38,6.6,11.79,7.79,19.24h-15.86c-1.1-6.71-4.21-12.09-9.31-16.14-5.1-4.05-11.52-6.07-19.24-6.07-7.17,0-13.45,1.82-18.83,5.45-5.38,3.63-9.52,8.71-12.41,15.24-2.89,6.53-4.34,14.21-4.34,23.03s1.45,16.51,4.34,23.03c2.9,6.53,7.03,11.61,12.41,15.24,5.38,3.63,11.66,5.45,18.83,5.45,7.72,0,14.14-2.02,19.24-6.07,5.1-4.05,8.21-9.38,9.31-16h15.86c-1.2,7.36-3.79,13.73-7.79,19.1-4,5.38-9.13,9.54-15.38,12.48-6.25,2.94-13.33,4.41-21.24,4.41Z"/>
        <path class="cls-1" d="M208.98,490.33c-7.45,0-14.12-1.77-20-5.31-5.88-3.54-10.53-8.53-13.93-14.96-3.4-6.44-5.1-14.02-5.1-22.76s1.7-16.46,5.1-22.9c3.4-6.43,8.05-11.4,13.93-14.9,5.88-3.49,12.55-5.24,20-5.24s14.39,1.75,20.28,5.24c5.88,3.5,10.48,8.46,13.79,14.9,3.31,6.44,4.97,14.07,4.97,22.9s-1.68,16.35-5.03,22.83c-3.36,6.48-7.98,11.47-13.86,14.97-5.89,3.49-12.6,5.24-20.14,5.24ZM208.98,476.81c7.35,0,13.22-2.69,17.58-8.07,4.37-5.38,6.55-12.53,6.55-21.45s-2.19-16.18-6.55-21.52c-4.37-5.33-10.23-8-17.58-8s-13.1,2.67-17.52,8c-4.41,5.33-6.62,12.51-6.62,21.52s2.21,16.07,6.62,21.45c4.41,5.38,10.25,8.07,17.52,8.07Z"/>
        <path class="cls-1" d="M268.42,488.68v-82.76h14.76v13.38h.55c2.39-4.78,5.74-8.46,10.07-11.03,4.32-2.57,9.42-3.86,15.31-3.86s11.26,1.45,15.86,4.34c4.6,2.9,8.18,6.88,10.76,11.93,2.57,5.06,3.86,10.85,3.86,17.38v50.62h-14.9v-48c0-7.08-1.82-12.64-5.45-16.69-3.63-4.05-8.71-6.07-15.24-6.07s-11.61,2.02-15.24,6.07c-3.63,4.05-5.45,9.61-5.45,16.69v48h-14.9Z"/>
        <path class="cls-1" d="M364.15,488.68v-82.76h14.76v13.38h.55c2.39-4.78,5.74-8.46,10.07-11.03,4.32-2.57,9.42-3.86,15.31-3.86s11.26,1.45,15.86,4.34,8.18,6.88,10.76,11.93c2.57,5.06,3.86,10.85,3.86,17.38v50.62h-14.9v-48c0-7.08-1.82-12.64-5.45-16.69-3.63-4.05-8.71-6.07-15.24-6.07s-11.61,2.02-15.24,6.07c-3.63,4.05-5.45,9.61-5.45,16.69v48h-14.9Z"/>
        <path class="cls-1" d="M494.07,490.33c-7.45,0-14.12-1.77-20-5.31-5.88-3.54-10.5-8.55-13.86-15.03-3.36-6.48-5.03-14.14-5.03-22.96s1.66-16.3,4.97-22.69c3.31-6.39,7.81-11.33,13.52-14.83,5.7-3.49,12.23-5.24,19.58-5.24,6.9,0,13.03,1.56,18.41,4.69,5.38,3.13,9.63,7.63,12.76,13.52,3.13,5.88,4.69,12.83,4.69,20.83v6.62h-59.59c.55,8.37,3.03,15.03,7.45,20,4.41,4.96,10.07,7.45,16.97,7.45,4.96,0,9.19-1.24,12.69-3.72,3.49-2.48,5.84-5.88,7.03-10.21h15.17c-1.1,5.61-3.31,10.41-6.62,14.41-3.31,4-7.36,7.08-12.14,9.24-4.78,2.16-10.12,3.24-16,3.24ZM470.21,438.61h44.41c-.65-6.8-2.9-12.09-6.76-15.86-3.86-3.77-8.78-5.65-14.76-5.65s-10.85,1.91-14.9,5.72c-4.05,3.82-6.71,9.08-8,15.79Z"/>
        <path class="cls-1" d="M583.45,490.33c-7.36,0-13.95-1.77-19.79-5.31-5.84-3.54-10.44-8.53-13.79-14.96-3.36-6.44-5.03-14.02-5.03-22.76s1.68-16.46,5.03-22.9c3.36-6.43,7.95-11.4,13.79-14.9,5.84-3.49,12.43-5.24,19.79-5.24,5.79,0,11.1,1.08,15.93,3.24,4.83,2.16,8.92,5.38,12.28,9.66,3.35,4.28,5.68,9.68,6.96,16.21h-15.45c-1.29-5.42-3.7-9.38-7.24-11.86-3.54-2.48-7.7-3.72-12.48-3.72-7.08,0-12.81,2.67-17.17,8-4.37,5.33-6.55,12.51-6.55,21.52s2.18,16.07,6.55,21.45c4.37,5.38,10.09,8.07,17.17,8.07,5.06,0,9.4-1.33,13.03-4,3.63-2.67,6.14-6.99,7.52-12.97h15.03c-1.2,6.81-3.5,12.46-6.9,16.97-3.4,4.5-7.54,7.88-12.41,10.14-4.88,2.25-10.3,3.38-16.28,3.38Z"/>
        <path class="cls-1" d="M652.83,488.68c-4.23,0-7.54-1.13-9.93-3.38-2.39-2.25-3.59-5.63-3.59-10.14v-57.38h-14.07v-11.86h14.21v-24.83h14.62v24.83h19.72v11.86h-19.58v59.03h21.52v11.86h-22.9Z"/>
        <path class="cls-1" d="M699.44,394.61c-2.58,0-4.78-.92-6.62-2.76-1.84-1.84-2.76-4.05-2.76-6.62s.92-4.78,2.76-6.62c1.84-1.84,4.05-2.76,6.62-2.76s4.78.92,6.62,2.76c1.84,1.84,2.76,4.05,2.76,6.62s-.92,4.78-2.76,6.62c-1.84,1.84-4.05,2.76-6.62,2.76ZM692,488.68v-82.76h14.9v82.76h-14.9Z"/>
        <path class="cls-1" d="M732.41,488.68v-82.76h14.76v13.38h.55c2.39-4.78,5.74-8.46,10.07-11.03,4.32-2.57,9.42-3.86,15.31-3.86s11.26,1.45,15.86,4.34c4.6,2.9,8.18,6.88,10.76,11.93,2.57,5.06,3.86,10.85,3.86,17.38v50.62h-14.9v-48c0-7.08-1.82-12.64-5.45-16.69-3.63-4.05-8.71-6.07-15.24-6.07s-11.61,2.02-15.24,6.07c-3.63,4.05-5.45,9.61-5.45,16.69v48h-14.9Z"/>
        <path class="cls-1" d="M860.68,523.43c-10.21,0-18.71-2.46-25.52-7.38-6.81-4.92-10.76-11.47-11.86-19.65h15.86c.92,4.41,3.26,7.86,7.03,10.35,3.77,2.48,8.5,3.72,14.21,3.72,7.36,0,13.13-2.12,17.31-6.34,4.18-4.23,6.28-9.98,6.28-17.24v-13.38h-.55c-2.02,4.88-5.17,8.62-9.45,11.24-4.28,2.62-9.31,3.93-15.1,3.93-6.99,0-13.13-1.77-18.41-5.31-5.29-3.54-9.4-8.48-12.34-14.83-2.94-6.35-4.41-13.7-4.41-22.07s1.47-15.72,4.41-22.07c2.94-6.34,7.06-11.29,12.34-14.83,5.29-3.54,11.42-5.31,18.41-5.31,5.79,0,10.83,1.31,15.1,3.93,4.27,2.62,7.42,6.32,9.45,11.1h.55v-13.38h14.76v81.65c0,11.03-3.43,19.77-10.28,26.21-6.85,6.43-16.12,9.65-27.79,9.65ZM862.47,475.16c6.53,0,11.72-2.11,15.58-6.34,3.86-4.23,5.79-9.84,5.79-16.83v-11.03c0-6.99-1.95-12.6-5.86-16.83-3.91-4.23-9.08-6.34-15.52-6.34-7.27,0-13.06,2.6-17.38,7.79-4.32,5.2-6.48,12.16-6.48,20.9s2.16,15.7,6.48,20.9c4.32,5.2,10.12,7.79,17.38,7.79Z"/>
        <path class="cls-1" d="M982.2,488.68c-4.23,0-7.54-1.13-9.93-3.38-2.39-2.25-3.59-5.63-3.59-10.14v-57.38h-14.07v-11.86h14.21v-24.83h14.62v24.83h19.72v11.86h-19.58v59.03h21.52v11.86h-22.9Z"/>
        <path class="cls-1" d="M1022.47,488.68v-82.76h14.21v16.55h.55c1.84-5.15,4.85-9.31,9.03-12.48,4.18-3.17,9.31-4.76,15.38-4.76h6.07v13.24h-6.9c-7.63,0-13.45,2.44-17.45,7.31-4,4.88-6,11.45-6,19.72v43.17h-14.9Z"/>
        <path class="cls-1" d="M1103.57,490.19c-8.19,0-14.83-2.32-19.93-6.96-5.1-4.64-7.66-10.64-7.66-18,0-7.81,2.55-13.91,7.66-18.28,5.1-4.37,12.35-6.55,21.72-6.55h24.14v-4.14c0-6.07-1.63-10.78-4.9-14.14-3.27-3.35-7.84-5.03-13.72-5.03-4.88,0-8.9,1.13-12.07,3.38-3.17,2.25-5.27,5.45-6.28,9.59h-15.17c1.38-8,5.1-14.3,11.17-18.9,6.07-4.6,13.61-6.9,22.62-6.9,10.21,0,18.18,2.76,23.93,8.28,5.75,5.52,8.62,13.29,8.62,23.31v52.83h-14.07v-14.34h-.55c-2.12,4.87-5.47,8.74-10.07,11.59-4.6,2.85-9.75,4.28-15.45,4.28ZM1106.61,477.78c4.32,0,8.21-1.01,11.66-3.03,3.45-2.02,6.18-4.76,8.21-8.21,2.02-3.45,3.03-7.29,3.03-11.52v-3.31h-23.17c-5.33,0-9.4,1.13-12.21,3.38-2.81,2.26-4.21,5.4-4.21,9.45s1.52,7.26,4.55,9.66,7.08,3.59,12.14,3.59Z"/>
        <path class="cls-1" d="M1197.91,490.33c-6.9,0-12.92-1.79-18.07-5.38-5.15-3.59-9.15-8.62-12-15.1-2.85-6.48-4.28-14-4.28-22.55s1.42-16.18,4.28-22.62c2.85-6.43,6.85-11.45,12-15.03,5.15-3.59,11.17-5.38,18.07-5.38,12.14,0,20.55,5.01,25.24,15.03h.55v-46.48h14.9v115.86h-14.76v-13.52h-.55c-4.78,10.12-13.24,15.17-25.38,15.17ZM1201.91,477.09c6.9,0,12.25-2.18,16.07-6.55,3.81-4.37,5.72-10.09,5.72-17.17v-12.14c0-7.08-1.91-12.8-5.72-17.17-3.82-4.37-9.17-6.55-16.07-6.55s-12.76,2.71-17.03,8.14c-4.28,5.43-6.41,12.64-6.41,21.65s2.14,16.23,6.41,21.65c4.28,5.43,9.95,8.14,17.03,8.14Z"/>
        <path class="cls-1" d="M1297.91,490.33c-7.45,0-14.12-1.77-20-5.31-5.88-3.54-10.5-8.55-13.86-15.03-3.36-6.48-5.03-14.14-5.03-22.96s1.66-16.3,4.97-22.69c3.31-6.39,7.81-11.33,13.52-14.83,5.7-3.49,12.23-5.24,19.58-5.24,6.9,0,13.03,1.56,18.41,4.69,5.38,3.13,9.63,7.63,12.76,13.52,3.13,5.88,4.69,12.83,4.69,20.83v6.62h-59.59c.55,8.37,3.03,15.03,7.45,20,4.41,4.96,10.07,7.45,16.97,7.45,4.96,0,9.19-1.24,12.69-3.72,3.49-2.48,5.84-5.88,7.03-10.21h15.17c-1.1,5.61-3.31,10.41-6.62,14.41-3.31,4-7.36,7.08-12.14,9.24-4.78,2.16-10.12,3.24-16,3.24ZM1274.05,438.61h44.41c-.65-6.8-2.9-12.09-6.76-15.86-3.86-3.77-8.78-5.65-14.76-5.65s-10.85,1.91-14.9,5.72c-4.05,3.82-6.71,9.08-8,15.79Z"/>
        <path class="cls-1" d="M1381.77,490.33c-9.93,0-18-2.46-24.21-7.38-6.21-4.92-9.59-11.52-10.14-19.79h14.62c.64,4.78,2.71,8.44,6.21,10.96,3.49,2.53,8.18,3.79,14.07,3.79,5.42,0,9.56-1.06,12.41-3.17,2.85-2.11,4.28-5.1,4.28-8.96,0-6.07-4.19-9.98-12.55-11.73l-13.66-3.03c-14.9-3.13-22.34-10.48-22.34-22.07,0-7.36,2.76-13.31,8.28-17.86,5.52-4.55,12.73-6.83,21.65-6.83s16.11,2.32,21.86,6.96c5.75,4.65,8.99,10.92,9.73,18.83h-14.35c-.92-4.32-2.92-7.66-6-10-3.08-2.34-7.06-3.52-11.93-3.52s-8.41,1.01-11.17,3.03c-2.76,2.02-4.14,4.78-4.14,8.28,0,2.76.96,4.99,2.9,6.69,1.93,1.7,5.01,3.01,9.24,3.93l13.79,2.9c7.54,1.66,13.17,4.39,16.9,8.21,3.72,3.82,5.59,8.81,5.59,14.97,0,7.91-2.76,14.18-8.28,18.83-5.52,4.65-13.1,6.97-22.76,6.97Z"/>
        <path class="cls-1" d="M1423.97,511.02v-9.38h5.24c2.48,0,4.34-.64,5.59-1.93,1.24-1.29,1.86-3.13,1.86-5.52v-5.52h-8.41v-18.48h18.76v24.14c0,5.24-1.43,9.33-4.28,12.28-2.85,2.94-6.99,4.41-12.41,4.41h-6.35Z"/>
        <path class="cls-1" d="M1537.9,490.33c-9.93,0-18-2.46-24.21-7.38-6.21-4.92-9.59-11.52-10.14-19.79h14.62c.64,4.78,2.71,8.44,6.21,10.96,3.49,2.53,8.18,3.79,14.07,3.79,5.42,0,9.56-1.06,12.41-3.17,2.85-2.11,4.28-5.1,4.28-8.96,0-6.07-4.19-9.98-12.55-11.73l-13.66-3.03c-14.9-3.13-22.34-10.48-22.34-22.07,0-7.36,2.76-13.31,8.28-17.86,5.52-4.55,12.73-6.83,21.65-6.83s16.11,2.32,21.86,6.96c5.75,4.65,8.99,10.92,9.73,18.83h-14.35c-.92-4.32-2.92-7.66-6-10-3.08-2.34-7.06-3.52-11.93-3.52s-8.41,1.01-11.17,3.03-4.14,4.78-4.14,8.28c0,2.76.96,4.99,2.9,6.69,1.93,1.7,5.01,3.01,9.24,3.93l13.79,2.9c7.54,1.66,13.17,4.39,16.9,8.21,3.72,3.82,5.59,8.81,5.59,14.97,0,7.91-2.76,14.18-8.28,18.83-5.52,4.65-13.1,6.97-22.76,6.97Z"/>
        <path class="cls-1" d="M1595.69,394.61c-2.58,0-4.78-.92-6.62-2.76-1.84-1.84-2.76-4.05-2.76-6.62s.92-4.78,2.76-6.62c1.84-1.84,4.05-2.76,6.62-2.76s4.78.92,6.62,2.76c1.84,1.84,2.76,4.05,2.76,6.62s-.92,4.78-2.76,6.62c-1.84,1.84-4.05,2.76-6.62,2.76ZM1588.24,488.68v-82.76h14.9v82.76h-14.9Z"/>
        <path class="cls-1" d="M1628.66,488.68v-82.76h14.62v13.38h.55c2.11-4.87,5.22-8.57,9.31-11.1,4.09-2.53,8.9-3.79,14.41-3.79s10.6,1.36,14.97,4.07c4.36,2.71,7.7,6.6,10,11.66h.41c2.76-5.06,6.34-8.94,10.76-11.66,4.41-2.71,9.52-4.07,15.31-4.07s11.08,1.36,15.59,4.07c4.5,2.71,7.98,6.55,10.41,11.52,2.43,4.97,3.66,10.81,3.66,17.52v51.17h-14.9v-48.96c0-6.9-1.66-12.25-4.97-16.07-3.31-3.81-7.91-5.72-13.79-5.72s-10.39,1.91-13.79,5.72c-3.4,3.82-5.1,9.17-5.1,16.07v48.96h-14.9v-48.96c0-6.9-1.68-12.25-5.03-16.07-3.36-3.81-7.98-5.72-13.86-5.72s-10.37,1.91-13.72,5.72c-3.36,3.82-5.03,9.17-5.03,16.07v48.96h-14.9Z"/>
        <path class="cls-1" d="M1773.21,521.78v-115.86h14.76v13.52h.55c4.78-10.12,13.24-15.17,25.38-15.17,6.9,0,12.92,1.79,18.07,5.38,5.15,3.59,9.15,8.6,12,15.03,2.85,6.44,4.28,13.98,4.28,22.62s-1.43,16.07-4.28,22.55c-2.85,6.48-6.85,11.52-12,15.1-5.15,3.59-11.17,5.38-18.07,5.38-12.14,0-20.55-5.01-25.24-15.03h-.55v46.48h-14.9ZM1809.89,477.09c7.17,0,12.87-2.71,17.1-8.14,4.23-5.42,6.35-12.64,6.35-21.65s-2.12-16.23-6.35-21.65c-4.23-5.42-9.93-8.14-17.1-8.14s-12.26,2.19-16.07,6.55c-3.82,4.37-5.72,10.09-5.72,17.17v12.14c0,7.08,1.91,12.76,5.72,17.03,3.81,4.28,9.17,6.51,16.07,6.69Z"/>
        <path class="cls-1" d="M1869.06,488.68v-115.86h14.9v115.86h-14.9Z"/>
        <path class="cls-1" d="M1906.03,521.78v-11.86h18.76l7.59-20.83-34.62-83.17h15.45l26.35,64.69h.55l23.17-64.69h15.03l-31.17,82.76-7.31,19.45c-1.65,4.32-3.43,7.68-5.31,10.07-1.89,2.39-5.03,3.59-9.45,3.59h-19.03Z"/>
      </g>
      <g>
        <path class="cls-2" d="M152.86,304.99h-54.46V58.82H0V10.89h251.26v47.93h-98.4v246.17Z"/>
        <path class="cls-2" d="M260.11,304.99v-163.75h-26.87v-54.1h55.19v42.12h15.25c6.05-14.52,15.37-25.53,27.96-33.04,12.58-7.5,26.99-11.25,43.21-11.25h18.16v46.48h-20.7c-19.61,0-34.31,5.69-44.11,17.06-9.8,11.38-14.71,26.51-14.71,45.39v111.1h-53.37Z"/>
        <path class="cls-2" d="M478.83,308.99c-25.42,0-45.33-6.17-59.73-18.52-14.4-12.35-21.6-28.68-21.6-49.02s7.32-37.76,21.97-49.38c14.64-11.62,35.76-17.43,63.36-17.43h66.44v-8.71c0-26.62-15.49-39.94-46.48-39.94-26.14,0-42,9.44-47.56,28.32h-54.1c4.36-23.24,15.31-40.97,32.86-53.19,17.55-12.22,40.48-18.34,68.8-18.34,31.95,0,56.28,7.21,72.98,21.6,16.7,14.4,25.05,35.4,25.05,63v83.51h25.78v54.1h-55.55v-34.86h-15.25c-7.51,12.35-17.61,21.91-30.32,28.68-12.71,6.77-28.26,10.17-46.66,10.17ZM486.82,267.23c11.86,0,22.51-2.24,31.95-6.72,9.44-4.48,16.88-10.53,22.33-18.16,5.45-7.62,8.17-16.16,8.17-25.6v-5.08h-63.54c-24.45,0-36.67,9.08-36.67,27.23,0,8.96,3.32,15.92,9.99,20.88,6.66,4.96,15.91,7.44,27.78,7.44Z"/>
        <path class="cls-2" d="M746.57,309.35c-22.27,0-41.16-4.66-56.64-13.98-15.49-9.32-27.29-22.51-35.4-39.58-8.11-17.06-12.16-36.97-12.16-59.73s3.93-42.96,11.8-59.91c7.86-16.94,19.24-30.07,34.13-39.39,14.89-9.32,32.73-13.98,53.55-13.98,16.46,0,30.62,3.09,42.48,9.26,11.86,6.17,20.93,15.07,27.23,26.69h1.45V0h54.1v250.89h26.87v54.1h-55.19v-34.86h-15.25c-7.75,12.59-18.04,22.27-30.86,29.05-12.83,6.77-28.2,10.17-46.11,10.17ZM756.01,262.51c17.43,0,31.28-4.9,41.57-14.7,10.29-9.8,15.43-23.18,15.43-40.12v-23.24c0-16.94-5.15-30.32-15.43-40.12-10.29-9.8-24.14-14.71-41.57-14.71-19.37,0-34.13,5.87-44.3,17.61-10.17,11.74-15.25,28.02-15.25,48.84s5.08,37.1,15.25,48.84c10.17,11.74,24.93,17.61,44.3,17.61Z"/>
        <path class="cls-2" d="M1024.47,309.35c-23.48,0-43.81-4.66-61-13.98-17.19-9.32-30.44-22.51-39.76-39.58-9.32-17.06-13.98-37.22-13.98-60.45s4.6-43.26,13.8-60.09c9.2-16.82,22.27-29.77,39.21-38.85,16.94-9.08,36.79-13.62,59.55-13.62s41.39,4.3,57.37,12.89c15.98,8.6,28.32,20.94,37.04,37.04,8.71,16.1,13.07,35.16,13.07,57.19v18.88h-167.75c1.93,18.4,8.29,32.5,19.06,42.3,10.77,9.8,25.11,14.71,43.03,14.71,13.31,0,24.14-2.48,32.5-7.44,8.35-4.96,14.22-12.4,17.61-22.33h54.46c-5.08,23-16.76,40.97-35.04,53.92-18.28,12.95-41.34,19.42-69.17,19.42ZM963.11,172.1h114.74c-2.18-15.01-7.99-26.44-17.43-34.31-9.44-7.86-22.15-11.8-38.12-11.8s-28.68,3.99-38.85,11.98c-10.17,7.99-16.94,19.37-20.33,34.13Z"/>
        <path class="cls-2" d="M1165.49,304.99V10.89h55.55v117.64h152.13V10.89h55.19v294.1h-55.19v-128.53h-152.13v128.53h-55.55Z"/>
        <path class="cls-2" d="M1567.58,308.99c-29.77,0-52.71-7.92-68.81-23.78-16.1-15.85-24.14-37.33-24.14-64.45V87.14h54.1v122.73c0,16.94,4.36,29.72,13.07,38.31,8.71,8.59,21.66,12.89,38.85,12.89,18.16,0,32.07-4.6,41.76-13.8,9.68-9.2,14.52-22.15,14.52-38.85v-121.27h54.1v163.75h27.23v54.1h-55.55v-34.86h-15.25c-8.48,12.59-19.06,22.21-31.77,28.87-12.71,6.66-28.75,9.98-48.11,9.98Z"/>
        <path class="cls-2" d="M1882.87,309.35c-18.15,0-33.65-3.39-46.48-10.17-12.83-6.78-23-16.46-30.5-29.05h-15.25v34.86h-55.55v-54.1h26.87V0h54.1v118.73h1.45c6.53-11.62,15.73-20.52,27.59-26.69,11.86-6.17,26.02-9.26,42.48-9.26,20.82,0,38.61,4.66,53.37,13.98,14.76,9.32,26.08,22.45,33.95,39.39,7.86,16.95,11.8,36.92,11.8,59.91s-3.99,42.66-11.98,59.73c-7.99,17.07-19.67,30.26-35.04,39.58-15.37,9.32-34.31,13.98-56.82,13.98ZM1873.07,262.51c19.61,0,34.43-5.86,44.48-17.61,10.04-11.74,15.07-28.01,15.07-48.84s-5.03-37.09-15.07-48.84c-10.05-11.74-24.87-17.61-44.48-17.61-17.19,0-30.99,4.9-41.39,14.71-10.41,9.8-15.61,23.18-15.61,40.12v23.24c0,16.95,5.2,30.32,15.61,40.12,10.4,9.8,24.2,14.7,41.39,14.7Z"/>
      </g>
    </g>
  </g>
</svg>