<?xml version="1.0" encoding="UTF-8"?>
<svg id="Layer_2" data-name="Layer 2" xmlns="http://www.w3.org/2000/svg" viewBox="0 0 1896.31 361.87">
  <defs>
    <style>
      .cls-1 {
        opacity: .7;
      }
    </style>
  </defs>
  <g id="Layer_1-2" data-name="Layer 1">
    <g>
      <g>
        <g>
          <path d="M630.29,339.6c-6.83,0-12.84-1.63-18.03-4.89-5.19-3.26-9.22-7.81-12.11-13.65-2.89-5.84-4.33-12.64-4.33-20.41s1.44-14.47,4.33-20.31c2.89-5.84,6.93-10.39,12.11-13.65,5.19-3.26,11.2-4.89,18.03-4.89,5.34,0,10.12.98,14.35,2.94,4.22,1.96,7.69,4.75,10.39,8.39,2.7,3.63,4.46,7.97,5.26,13h-10.72c-.75-4.53-2.84-8.17-6.29-10.9-3.45-2.73-7.78-4.1-13-4.1-4.85,0-9.09,1.23-12.72,3.68-3.63,2.45-6.43,5.89-8.39,10.3-1.96,4.41-2.93,9.6-2.93,15.56s.98,11.15,2.93,15.56c1.96,4.41,4.75,7.84,8.39,10.3,3.63,2.46,7.87,3.68,12.72,3.68,5.22,0,9.55-1.37,13-4.1,3.45-2.73,5.54-6.34,6.29-10.81h10.72c-.81,4.97-2.56,9.27-5.26,12.91s-6.17,6.44-10.39,8.43c-4.22,1.99-9.01,2.98-14.35,2.98Z"/>
          <path d="M695.33,339.51c-5.03,0-9.54-1.2-13.51-3.59-3.98-2.39-7.11-5.76-9.41-10.11-2.3-4.35-3.45-9.47-3.45-15.38s1.15-11.12,3.45-15.47c2.3-4.35,5.44-7.7,9.41-10.06,3.98-2.36,8.48-3.54,13.51-3.54s9.72,1.18,13.7,3.54c3.97,2.36,7.08,5.72,9.32,10.06,2.24,4.35,3.36,9.5,3.36,15.47s-1.13,11.04-3.4,15.42c-2.27,4.38-5.39,7.75-9.36,10.11-3.98,2.36-8.51,3.54-13.6,3.54ZM695.33,330.38c4.97,0,8.93-1.82,11.88-5.45,2.95-3.63,4.43-8.46,4.43-14.49s-1.48-10.93-4.43-14.54c-2.95-3.6-6.91-5.4-11.88-5.4s-8.85,1.8-11.84,5.4c-2.98,3.6-4.47,8.45-4.47,14.54s1.49,10.86,4.47,14.49c2.98,3.63,6.93,5.45,11.84,5.45Z"/>
          <path d="M735.49,338.39v-55.91h9.97v9.04h.37c1.61-3.23,3.88-5.71,6.8-7.45,2.92-1.74,6.37-2.61,10.34-2.61s7.61.98,10.72,2.93c3.11,1.96,5.53,4.65,7.27,8.06,1.74,3.42,2.61,7.33,2.61,11.74v34.2h-10.06v-32.43c0-4.78-1.23-8.54-3.68-11.27-2.45-2.73-5.89-4.1-10.3-4.1s-7.84,1.37-10.3,4.1c-2.45,2.73-3.68,6.49-3.68,11.27v32.43h-10.06Z"/>
          <path d="M800.16,338.39v-55.91h9.97v9.04h.37c1.61-3.23,3.88-5.71,6.8-7.45,2.92-1.74,6.37-2.61,10.34-2.61s7.61.98,10.72,2.93c3.11,1.96,5.53,4.65,7.27,8.06,1.74,3.42,2.61,7.33,2.61,11.74v34.2h-10.06v-32.43c0-4.78-1.23-8.54-3.68-11.27-2.45-2.73-5.89-4.1-10.3-4.1s-7.84,1.37-10.3,4.1c-2.45,2.73-3.68,6.49-3.68,11.27v32.43h-10.06Z"/>
          <path d="M887.93,339.51c-5.03,0-9.54-1.2-13.51-3.59-3.98-2.39-7.1-5.78-9.36-10.16-2.27-4.38-3.4-9.55-3.4-15.51s1.12-11.01,3.36-15.33c2.24-4.32,5.28-7.66,9.13-10.02,3.85-2.36,8.26-3.54,13.23-3.54,4.66,0,8.81,1.06,12.44,3.17,3.63,2.11,6.51,5.16,8.62,9.13,2.11,3.98,3.17,8.66,3.17,14.07v4.47h-40.25c.37,5.65,2.05,10.16,5.03,13.51,2.98,3.35,6.8,5.03,11.46,5.03,3.35,0,6.21-.84,8.57-2.52,2.36-1.68,3.94-3.98,4.75-6.89h10.25c-.75,3.79-2.24,7.03-4.47,9.74-2.24,2.7-4.97,4.78-8.2,6.24-3.23,1.46-6.83,2.19-10.81,2.19ZM871.81,304.57h30.01c-.44-4.6-1.96-8.17-4.57-10.72-2.61-2.55-5.93-3.82-9.97-3.82s-7.33,1.29-10.06,3.87c-2.73,2.58-4.54,6.14-5.4,10.67Z"/>
          <path d="M948.31,339.51c-4.97,0-9.43-1.2-13.37-3.59-3.95-2.39-7.05-5.76-9.32-10.11-2.27-4.35-3.4-9.47-3.4-15.38s1.13-11.12,3.4-15.47c2.27-4.35,5.37-7.7,9.32-10.06,3.94-2.36,8.4-3.54,13.37-3.54,3.91,0,7.5.73,10.76,2.19,3.26,1.46,6.02,3.63,8.29,6.52,2.27,2.89,3.83,6.54,4.71,10.95h-10.44c-.87-3.66-2.5-6.34-4.89-8.01-2.39-1.68-5.2-2.52-8.43-2.52-4.78,0-8.65,1.8-11.6,5.4-2.95,3.6-4.43,8.45-4.43,14.54s1.48,10.86,4.43,14.49c2.95,3.63,6.82,5.45,11.6,5.45,3.42,0,6.35-.9,8.81-2.7,2.45-1.8,4.15-4.72,5.08-8.76h10.16c-.81,4.6-2.36,8.42-4.66,11.46-2.3,3.04-5.1,5.33-8.39,6.85-3.29,1.52-6.96,2.28-11,2.28Z"/>
          <path d="M995.18,338.39c-2.86,0-5.1-.76-6.71-2.28-1.62-1.52-2.42-3.8-2.42-6.85v-38.76h-9.5v-8.01h9.6v-16.77h9.88v16.77h13.32v8.01h-13.23v39.88h14.54v8.01h-15.47Z"/>
          <path d="M1026.68,274.84c-1.74,0-3.23-.62-4.47-1.86-1.24-1.24-1.86-2.73-1.86-4.47s.62-3.23,1.86-4.47c1.24-1.24,2.73-1.86,4.47-1.86s3.23.62,4.47,1.86c1.24,1.24,1.86,2.73,1.86,4.47s-.62,3.23-1.86,4.47c-1.24,1.24-2.73,1.86-4.47,1.86ZM1021.64,338.39v-55.91h10.06v55.91h-10.06Z"/>
          <path d="M1048.95,338.39v-55.91h9.97v9.04h.37c1.61-3.23,3.88-5.71,6.8-7.45,2.92-1.74,6.37-2.61,10.34-2.61s7.61.98,10.72,2.93c3.11,1.96,5.53,4.65,7.27,8.06,1.74,3.42,2.61,7.33,2.61,11.74v34.2h-10.06v-32.43c0-4.78-1.23-8.54-3.68-11.27-2.45-2.73-5.89-4.1-10.3-4.1s-7.84,1.37-10.3,4.1c-2.45,2.73-3.68,6.49-3.68,11.27v32.43h-10.06Z"/>
          <path d="M1135.6,361.87c-6.9,0-12.64-1.66-17.24-4.99-4.6-3.32-7.27-7.75-8.01-13.28h10.72c.62,2.98,2.2,5.31,4.75,6.99,2.55,1.68,5.75,2.52,9.6,2.52,4.97,0,8.87-1.43,11.69-4.29,2.83-2.86,4.24-6.74,4.24-11.65v-9.04h-.37c-1.37,3.29-3.49,5.82-6.38,7.59-2.89,1.77-6.29,2.66-10.2,2.66-4.72,0-8.87-1.2-12.44-3.59-3.57-2.39-6.35-5.73-8.34-10.02-1.99-4.29-2.98-9.26-2.98-14.91s.99-10.62,2.98-14.91c1.99-4.29,4.77-7.62,8.34-10.02,3.57-2.39,7.72-3.59,12.44-3.59,3.91,0,7.32.89,10.2,2.66,2.89,1.77,5.02,4.27,6.38,7.5h.37v-9.04h9.97v55.16c0,7.45-2.31,13.35-6.94,17.7-4.63,4.35-10.89,6.52-18.78,6.52ZM1136.81,329.26c4.41,0,7.92-1.43,10.53-4.29,2.61-2.86,3.91-6.65,3.91-11.37v-7.45c0-4.72-1.32-8.51-3.96-11.37-2.64-2.86-6.14-4.29-10.48-4.29-4.91,0-8.82,1.76-11.74,5.27-2.92,3.51-4.38,8.22-4.38,14.12s1.46,10.61,4.38,14.12c2.92,3.51,6.83,5.27,11.74,5.27Z"/>
          <path d="M1217.69,338.39c-2.86,0-5.1-.76-6.71-2.28-1.62-1.52-2.42-3.8-2.42-6.85v-38.76h-9.5v-8.01h9.6v-16.77h9.88v16.77h13.32v8.01h-13.23v39.88h14.54v8.01h-15.47Z"/>
          <path d="M1244.9,338.39v-55.91h9.6v11.18h.37c1.24-3.48,3.28-6.29,6.1-8.43,2.83-2.14,6.29-3.21,10.39-3.21h4.1v8.95h-4.66c-5.16,0-9.08,1.65-11.79,4.94-2.7,3.29-4.05,7.73-4.05,13.33v29.17h-10.06Z"/>
          <path d="M1299.69,339.42c-5.53,0-10.02-1.57-13.46-4.71-3.45-3.14-5.17-7.19-5.17-12.16,0-5.28,1.72-9.39,5.17-12.35,3.45-2.95,8.34-4.43,14.68-4.43h16.31v-2.79c0-4.1-1.1-7.28-3.31-9.55-2.21-2.27-5.3-3.4-9.27-3.4-3.29,0-6.01.76-8.15,2.28-2.14,1.52-3.56,3.68-4.24,6.48h-10.25c.93-5.4,3.45-9.66,7.55-12.77,4.1-3.11,9.19-4.66,15.28-4.66,6.9,0,12.29,1.86,16.17,5.59,3.88,3.73,5.82,8.98,5.82,15.75v35.69h-9.5v-9.69h-.37c-1.43,3.29-3.7,5.9-6.8,7.83-3.11,1.92-6.59,2.89-10.44,2.89ZM1301.74,331.03c2.92,0,5.54-.68,7.87-2.05,2.33-1.37,4.18-3.21,5.54-5.54,1.37-2.33,2.05-4.92,2.05-7.78v-2.24h-15.65c-3.6,0-6.35.76-8.25,2.28-1.9,1.52-2.84,3.65-2.84,6.38s1.03,4.91,3.08,6.52c2.05,1.62,4.78,2.42,8.2,2.42Z"/>
          <path d="M1363.42,339.51c-4.66,0-8.73-1.21-12.21-3.63-3.48-2.42-6.18-5.82-8.11-10.2-1.93-4.38-2.89-9.46-2.89-15.24s.96-10.93,2.89-15.28c1.92-4.35,4.63-7.73,8.11-10.16,3.48-2.42,7.55-3.63,12.21-3.63,8.2,0,13.88,3.39,17.05,10.16h.37v-31.4h10.06v78.27h-9.97v-9.13h-.37c-3.23,6.83-8.94,10.25-17.14,10.25ZM1366.13,330.57c4.66,0,8.28-1.48,10.86-4.43,2.58-2.95,3.87-6.82,3.87-11.6v-8.2c0-4.78-1.29-8.65-3.87-11.6-2.58-2.95-6.2-4.43-10.86-4.43s-8.62,1.83-11.51,5.5c-2.89,3.67-4.33,8.54-4.33,14.63s1.44,10.96,4.33,14.63c2.89,3.67,6.72,5.5,11.51,5.5Z"/>
          <path d="M1430.98,339.51c-5.03,0-9.54-1.2-13.51-3.59-3.98-2.39-7.1-5.78-9.36-10.16-2.27-4.38-3.4-9.55-3.4-15.51s1.12-11.01,3.36-15.33c2.24-4.32,5.28-7.66,9.13-10.02,3.85-2.36,8.26-3.54,13.23-3.54,4.66,0,8.81,1.06,12.44,3.17,3.63,2.11,6.51,5.16,8.62,9.13,2.11,3.98,3.17,8.66,3.17,14.07v4.47h-40.25c.37,5.65,2.05,10.16,5.03,13.51,2.98,3.35,6.8,5.03,11.46,5.03,3.35,0,6.21-.84,8.57-2.52,2.36-1.68,3.94-3.98,4.75-6.89h10.25c-.75,3.79-2.24,7.03-4.47,9.74-2.24,2.7-4.97,4.78-8.2,6.24-3.23,1.46-6.83,2.19-10.81,2.19ZM1414.86,304.57h30.01c-.44-4.6-1.96-8.17-4.57-10.72-2.61-2.55-5.93-3.82-9.97-3.82s-7.33,1.29-10.06,3.87c-2.73,2.58-4.54,6.14-5.4,10.67Z"/>
          <path d="M1487.63,339.51c-6.71,0-12.16-1.66-16.35-4.99-4.19-3.32-6.48-7.78-6.85-13.37h9.88c.43,3.23,1.83,5.7,4.19,7.41,2.36,1.71,5.53,2.56,9.5,2.56,3.66,0,6.46-.71,8.39-2.14,1.92-1.43,2.89-3.45,2.89-6.06,0-4.1-2.83-6.74-8.48-7.92l-9.22-2.05c-10.06-2.11-15.09-7.08-15.09-14.91,0-4.97,1.86-8.99,5.59-12.07,3.73-3.08,8.6-4.61,14.63-4.61s10.89,1.57,14.77,4.71c3.88,3.14,6.07,7.38,6.57,12.72h-9.69c-.62-2.92-1.97-5.17-4.05-6.76-2.08-1.58-4.77-2.38-8.06-2.38s-5.68.68-7.55,2.05c-1.86,1.37-2.8,3.23-2.8,5.59,0,1.86.65,3.37,1.96,4.52,1.3,1.15,3.38,2.04,6.24,2.66l9.32,1.96c5.09,1.12,8.9,2.97,11.41,5.54,2.52,2.58,3.77,5.95,3.77,10.11,0,5.34-1.86,9.58-5.59,12.72-3.73,3.14-8.85,4.71-15.37,4.71Z"/>
          <path d="M1516.14,353.49v-6.34h3.54c1.68,0,2.93-.43,3.77-1.3.84-.87,1.26-2.11,1.26-3.73v-3.73h-5.68v-12.49h12.67v16.31c0,3.54-.96,6.3-2.89,8.29-1.93,1.99-4.72,2.98-8.39,2.98h-4.29Z"/>
          <path d="M1593.11,339.51c-6.71,0-12.16-1.66-16.35-4.99-4.19-3.32-6.48-7.78-6.85-13.37h9.88c.43,3.23,1.83,5.7,4.19,7.41,2.36,1.71,5.53,2.56,9.5,2.56,3.66,0,6.46-.71,8.39-2.14,1.92-1.43,2.89-3.45,2.89-6.06,0-4.1-2.83-6.74-8.48-7.92l-9.22-2.05c-10.06-2.11-15.09-7.08-15.09-14.91,0-4.97,1.86-8.99,5.59-12.07,3.73-3.08,8.6-4.61,14.63-4.61s10.89,1.57,14.77,4.71c3.88,3.14,6.07,7.38,6.57,12.72h-9.69c-.62-2.92-1.97-5.17-4.05-6.76-2.08-1.58-4.77-2.38-8.06-2.38s-5.68.68-7.55,2.05-2.8,3.23-2.8,5.59c0,1.86.65,3.37,1.96,4.52,1.3,1.15,3.38,2.04,6.24,2.66l9.32,1.96c5.09,1.12,8.9,2.97,11.41,5.54,2.52,2.58,3.77,5.95,3.77,10.11,0,5.34-1.86,9.58-5.59,12.72-3.73,3.14-8.85,4.71-15.37,4.71Z"/>
          <path d="M1632.15,274.84c-1.74,0-3.23-.62-4.47-1.86-1.24-1.24-1.86-2.73-1.86-4.47s.62-3.23,1.86-4.47c1.24-1.24,2.73-1.86,4.47-1.86s3.23.62,4.47,1.86c1.24,1.24,1.86,2.73,1.86,4.47s-.62,3.23-1.86,4.47c-1.24,1.24-2.73,1.86-4.47,1.86ZM1627.12,338.39v-55.91h10.06v55.91h-10.06Z"/>
          <path d="M1654.42,338.39v-55.91h9.88v9.04h.37c1.43-3.29,3.52-5.79,6.29-7.5,2.76-1.71,6.01-2.56,9.74-2.56s7.16.92,10.11,2.75c2.95,1.83,5.2,4.46,6.76,7.87h.28c1.86-3.42,4.29-6.04,7.27-7.87,2.98-1.83,6.43-2.75,10.34-2.75s7.49.92,10.53,2.75c3.04,1.83,5.39,4.43,7.04,7.78,1.64,3.36,2.47,7.3,2.47,11.84v34.57h-10.06v-33.08c0-4.66-1.12-8.28-3.36-10.86-2.24-2.58-5.34-3.87-9.32-3.87s-7.02,1.29-9.32,3.87c-2.3,2.58-3.45,6.2-3.45,10.86v33.08h-10.06v-33.08c0-4.66-1.13-8.28-3.4-10.86-2.27-2.58-5.39-3.87-9.36-3.87s-7,1.29-9.27,3.87c-2.27,2.58-3.4,6.2-3.4,10.86v33.08h-10.06Z"/>
          <path d="M1752.07,360.76v-78.27h9.97v9.13h.37c3.23-6.83,8.94-10.25,17.14-10.25,4.66,0,8.73,1.21,12.21,3.63,3.48,2.42,6.18,5.81,8.11,10.16,1.92,4.35,2.89,9.44,2.89,15.28s-.96,10.86-2.89,15.24c-1.93,4.38-4.63,7.78-8.11,10.2-3.48,2.42-7.55,3.63-12.21,3.63-8.2,0-13.88-3.39-17.05-10.16h-.37v31.4h-10.06ZM1776.86,330.57c4.85,0,8.7-1.83,11.55-5.5,2.86-3.66,4.29-8.54,4.29-14.63s-1.43-10.96-4.29-14.63c-2.86-3.66-6.71-5.5-11.55-5.5s-8.28,1.48-10.86,4.43c-2.58,2.95-3.87,6.82-3.87,11.6v8.2c0,4.78,1.29,8.62,3.87,11.51,2.58,2.89,6.2,4.4,10.86,4.52Z"/>
          <path d="M1816.83,338.39v-78.27h10.06v78.27h-10.06Z"/>
          <path d="M1841.8,360.76v-8.01h12.67l5.12-14.07-23.39-56.19h10.44l17.8,43.7h.37l15.65-43.7h10.16l-21.06,55.91-4.94,13.14c-1.12,2.92-2.31,5.19-3.59,6.8-1.27,1.62-3.4,2.42-6.38,2.42h-12.86Z"/>
        </g>
        <g>
          <path d="M657.42,214.3h-36.79V48h-66.47V15.62h169.74v32.38h-66.47v166.31Z"/>
          <path d="M729.88,214.3v-110.63h-18.15v-36.55h37.28v28.45h10.3c4.08-9.81,10.38-17.25,18.89-22.32,8.5-5.07,18.23-7.6,29.19-7.6h12.27v31.4h-13.98c-13.25,0-23.18,3.84-29.8,11.53-6.62,7.69-9.93,17.91-9.93,30.66v75.06h-36.06Z"/>
          <path d="M877.64,217c-17.17,0-30.62-4.17-40.35-12.51-9.73-8.34-14.59-19.38-14.59-33.11s4.94-25.51,14.84-33.36c9.89-7.85,24.16-11.77,42.8-11.77h44.89v-5.89c0-17.99-10.47-26.98-31.4-26.98-17.66,0-28.37,6.38-32.13,19.13h-36.55c2.94-15.7,10.34-27.67,22.2-35.94,11.85-8.26,27.35-12.39,46.48-12.39,21.59,0,38.02,4.87,49.3,14.6,11.28,9.73,16.92,23.92,16.92,42.56v56.42h17.42v36.55h-37.53v-23.55h-10.3c-5.07,8.34-11.9,14.8-20.48,19.38-8.58,4.58-19.09,6.87-31.52,6.87ZM883.03,188.79c8.01,0,15.21-1.51,21.58-4.54,6.38-3.02,11.41-7.11,15.09-12.27,3.68-5.15,5.52-10.91,5.52-17.29v-3.43h-42.93c-16.52,0-24.77,6.13-24.77,18.4,0,6.05,2.25,10.75,6.75,14.1,4.5,3.35,10.75,5.03,18.77,5.03Z"/>
          <path d="M1058.51,217.25c-15.05,0-27.8-3.15-38.27-9.44-10.47-6.29-18.44-15.21-23.92-26.74-5.48-11.53-8.22-24.98-8.22-40.35s2.66-29.02,7.97-40.47c5.31-11.44,13-20.32,23.06-26.61,10.06-6.29,22.11-9.44,36.18-9.44,11.12,0,20.69,2.09,28.7,6.26,8.01,4.17,14.14,10.18,18.4,18.03h.98V8.26h36.55v169.49h18.15v36.55h-37.28v-23.55h-10.3c-5.24,8.51-12.18,15.05-20.85,19.62-8.67,4.58-19.05,6.87-31.15,6.87ZM1064.89,185.6c11.77,0,21.13-3.31,28.09-9.93,6.95-6.62,10.43-15.66,10.43-27.11v-15.7c0-11.44-3.48-20.48-10.43-27.1-6.95-6.62-16.31-9.93-28.09-9.93-13.08,0-23.06,3.97-29.92,11.9-6.87,7.93-10.3,18.93-10.3,32.99s3.43,25.06,10.3,32.99c6.87,7.93,16.84,11.9,29.92,11.9Z"/>
          <path d="M1246.25,217.25c-15.86,0-29.6-3.15-41.21-9.44-11.61-6.29-20.57-15.21-26.86-26.74-6.3-11.53-9.44-25.14-9.44-40.84s3.1-29.23,9.32-40.59c6.21-11.36,15.04-20.11,26.49-26.25,11.44-6.13,24.86-9.2,40.23-9.2s27.96,2.91,38.76,8.71c10.79,5.81,19.13,14.15,25.02,25.02,5.89,10.88,8.83,23.75,8.83,38.63v12.75h-113.32c1.31,12.43,5.6,21.95,12.88,28.58,7.27,6.62,16.96,9.93,29.07,9.93,8.99,0,16.31-1.67,21.95-5.03,5.64-3.35,9.6-8.38,11.9-15.08h36.79c-3.43,15.54-11.33,27.68-23.67,36.43-12.35,8.75-27.92,13.12-46.73,13.12ZM1204.8,124.52h77.51c-1.47-10.14-5.4-17.86-11.77-23.18-6.38-5.31-14.96-7.97-25.76-7.97s-19.38,2.7-26.25,8.09c-6.87,5.4-11.45,13.08-13.74,23.06Z"/>
          <path d="M1341.52,214.3V15.62h37.53v79.47h102.78V15.62h37.28v198.69h-37.28v-86.83h-102.78v86.83h-37.53Z"/>
          <path d="M1613.16,217c-20.11,0-35.61-5.35-46.48-16.07-10.88-10.71-16.31-25.22-16.31-43.54v-90.27h36.55v82.91c0,11.45,2.94,20.08,8.83,25.88,5.89,5.81,14.63,8.71,26.25,8.71,12.27,0,21.67-3.1,28.21-9.32,6.54-6.21,9.81-14.96,9.81-26.25v-81.93h36.55v110.63h18.4v36.55h-37.53v-23.55h-10.3c-5.73,8.51-12.88,15-21.46,19.5-8.58,4.5-19.42,6.74-32.5,6.74Z"/>
          <path d="M1826.16,217.25c-12.26,0-22.73-2.29-31.4-6.87-8.67-4.58-15.54-11.12-20.6-19.62h-10.3v23.55h-37.53v-36.55h18.15V8.26h36.55v80.21h.98c4.41-7.85,10.63-13.86,18.64-18.03,8.01-4.17,17.58-6.26,28.7-6.26,14.06,0,26.08,3.15,36.06,9.44,9.97,6.3,17.62,15.17,22.94,26.61,5.31,11.45,7.97,24.94,7.97,40.47s-2.7,28.82-8.09,40.35c-5.4,11.53-13.29,20.44-23.67,26.74-10.39,6.3-23.18,9.44-38.39,9.44ZM1819.54,185.6c13.25,0,23.26-3.96,30.05-11.9,6.78-7.93,10.18-18.92,10.18-32.99s-3.4-25.06-10.18-32.99c-6.79-7.93-16.8-11.9-30.05-11.9-11.61,0-20.93,3.31-27.96,9.93-7.03,6.62-10.55,15.66-10.55,27.1v15.7c0,11.45,3.52,20.48,10.55,27.11,7.03,6.62,16.35,9.93,27.96,9.93Z"/>
        </g>
      </g>
      <g>
        <path d="M289.39,93.13v235.43c0,14.88-12.08,27-26.96,27h-106.8c-14.87,0-26.96-12.12-26.96-27v-101.67H26.97c-14.88,0-26.97-12.12-26.97-26.99v-106.77c0-14.88,12.09-26.97,26.97-26.97h155.52v35.31H35.33v90.09h128.64v128.67h90.09V101.47h-36.25v-35.31h44.62c14.88,0,26.96,12.09,26.96,26.97Z"/>
        <g class="cls-1">
          <path d="M471.88,26.97v116.69c0,14.88-12.1,26.98-26.98,26.98h-155.51v-35.32h147.17V35.32h-218.75v100h36.25v35.32h-44.59c-14.88,0-26.98-12.1-26.98-26.98V26.97c0-14.87,12.1-26.97,26.98-26.97h235.43c14.88,0,26.98,12.1,26.98,26.97Z"/>
        </g>
      </g>
    </g>
  </g>
</svg>