<?xml version="1.0" encoding="UTF-8"?>
<svg id="Layer_2" data-name="Layer 2" xmlns="http://www.w3.org/2000/svg" viewBox="0 0 1257.34 947.36">
  <defs>
    <style>
      .cls-1 {
        fill: #fff;
      }

      .cls-2 {
        opacity: .7;
      }
    </style>
  </defs>
  <g id="Layer_1-2" data-name="Layer 1">
    <g>
      <path class="cls-1" d="M771.1,248.16v627.25c0,39.65-32.24,71.95-71.89,71.95h-284.51c-39.65,0-71.89-32.3-71.89-71.95v-270.91H71.84c-39.65,0-71.84-32.24-71.84-71.89V248.16c0-39.65,32.18-71.89,71.84-71.89h414.4v94.06H94.12v240.05h342.74v342.86h240.05V270.33h-96.55v-94.06h118.84c39.65,0,71.89,32.24,71.89,71.89Z"/>
      <g class="cls-2">
        <path class="cls-1" d="M1257.34,71.84v310.9c0,39.65-32.3,71.89-71.89,71.89h-414.35v-94.12h392.12V94.06h-582.85v266.45h96.55v94.12h-118.78c-39.65,0-71.89-32.24-71.89-71.89V71.84c0-39.59,32.24-71.84,71.89-71.84h627.31c39.59,0,71.89,32.24,71.89,71.84Z"/>
      </g>
    </g>
  </g>
</svg>